<?xml version="1.0" encoding="UTF-8" standalone="no"?>
<!-- Created with Inkscape (http://www.inkscape.org/) -->

<svg
   width="512"
   height="512"
   viewBox="0 0 512 512"
   version="1.1"
   id="svg1"
   xml:space="preserve"
   inkscape:version="1.3 (0e150ed, 2023-07-21)"
   sodipodi:docname="assetsfieldikona.svg"
   inkscape:export-filename="assetsfieldikona_EXPORT.svg"
   inkscape:export-xdpi="96"
   inkscape:export-ydpi="96"
   xmlns:inkscape="http://www.inkscape.org/namespaces/inkscape"
   xmlns:sodipodi="http://sodipodi.sourceforge.net/DTD/sodipodi-0.dtd"
   xmlns:xlink="http://www.w3.org/1999/xlink"
   xmlns="http://www.w3.org/2000/svg"
   xmlns:svg="http://www.w3.org/2000/svg"><sodipodi:namedview
     id="namedview1"
     pagecolor="#505050"
     bordercolor="#ffffff"
     borderopacity="1"
     inkscape:showpageshadow="0"
     inkscape:pageopacity="0"
     inkscape:pagecheckerboard="1"
     inkscape:deskcolor="#d1d1d1"
     inkscape:document-units="px"
     inkscape:zoom="0.65186406"
     inkscape:cx="790.80905"
     inkscape:cy="549.19426"
     inkscape:window-width="2176"
     inkscape:window-height="1193"
     inkscape:window-x="232"
     inkscape:window-y="114"
     inkscape:window-maximized="0"
     inkscape:current-layer="layer8"
     showguides="false" /><defs
     id="defs1"><linearGradient
       id="linearGradient399"
       inkscape:collect="always"><stop
         style="stop-color:#1d7dd7;stop-opacity:1;"
         offset="0"
         id="stop398" /><stop
         style="stop-color:#73cdff;stop-opacity:0.02285714;"
         offset="1"
         id="stop399" /></linearGradient><linearGradient
       id="linearGradient33"
       inkscape:collect="always"><stop
         style="stop-color:#9fdffe;stop-opacity:0.99601603;"
         offset="0"
         id="stop33" /><stop
         style="stop-color:#009de6;stop-opacity:1;"
         offset="1"
         id="stop34" /></linearGradient><linearGradient
       id="linearGradient31"
       inkscape:collect="always"><stop
         style="stop-color:#ffffff;stop-opacity:1;"
         offset="0"
         id="stop31" /><stop
         style="stop-color:#cecece;stop-opacity:1;"
         offset="1"
         id="stop32" /></linearGradient><linearGradient
       id="linearGradient29"
       inkscape:collect="always"><stop
         style="stop-color:#6eaeff;stop-opacity:0.99601603;"
         offset="0"
         id="stop29" /><stop
         style="stop-color:#36c3ff;stop-opacity:1;"
         offset="1"
         id="stop30" /></linearGradient><linearGradient
       id="linearGradient27"
       inkscape:collect="always"><stop
         style="stop-color:#1d7dd7;stop-opacity:1;"
         offset="0"
         id="stop27" /><stop
         style="stop-color:#73cdff;stop-opacity:1;"
         offset="1"
         id="stop28" /></linearGradient><linearGradient
       inkscape:collect="always"
       xlink:href="#linearGradient29"
       id="linearGradient30"
       x1="284.56854"
       y1="110.83599"
       x2="291.47183"
       y2="311.79813"
       gradientUnits="userSpaceOnUse"
       gradientTransform="matrix(1.0043661,0,0,1.4864447,78.517798,-15.330118)" /><linearGradient
       inkscape:collect="always"
       xlink:href="#linearGradient31"
       id="linearGradient32"
       x1="372.77737"
       y1="132.00925"
       x2="374.31198"
       y2="451.09418"
       gradientUnits="userSpaceOnUse"
       gradientTransform="matrix(1.3647695,0,0,1.3647695,2.6254377,31.559028)" /><radialGradient
       inkscape:collect="always"
       xlink:href="#linearGradient33"
       id="radialGradient34"
       cx="-72.881947"
       cy="484.90515"
       fx="-72.881947"
       fy="484.90515"
       r="131.66821"
       gradientTransform="matrix(1.1657882,-0.70960104,0.62412472,0.40693472,254.34314,195.68118)"
       gradientUnits="userSpaceOnUse" /><linearGradient
       inkscape:collect="always"
       xlink:href="#linearGradient399"
       id="linearGradient262"
       x1="206.01799"
       y1="310.24005"
       x2="209.97813"
       y2="369.67285"
       gradientUnits="userSpaceOnUse"
       gradientTransform="matrix(1.8280152,0,0,1.8280152,-93.378365,-91.316235)" /><linearGradient
       inkscape:collect="always"
       xlink:href="#linearGradient399"
       id="linearGradient472"
       gradientUnits="userSpaceOnUse"
       gradientTransform="matrix(1.3387534,0,0,1.3387534,91.811678,238.04419)"
       x1="206.01799"
       y1="310.24005"
       x2="209.97813"
       y2="369.67285" /><linearGradient
       inkscape:collect="always"
       xlink:href="#linearGradient399"
       id="linearGradient474"
       gradientUnits="userSpaceOnUse"
       gradientTransform="matrix(1.9272344,0,0,1.9272344,260.07764,-39.715486)"
       x1="206.01799"
       y1="310.24005"
       x2="209.97813"
       y2="369.67285" /><linearGradient
       inkscape:collect="always"
       xlink:href="#linearGradient399"
       id="linearGradient476"
       gradientUnits="userSpaceOnUse"
       gradientTransform="matrix(1.8566644,0,0,1.8566644,140.12014,-78.937419)"
       x1="206.01799"
       y1="310.24005"
       x2="209.97813"
       y2="369.67285" /><linearGradient
       inkscape:collect="always"
       xlink:href="#linearGradient399"
       id="linearGradient479"
       gradientUnits="userSpaceOnUse"
       gradientTransform="matrix(1.7263957,0,0,1.7263957,-129.53805,37.300579)"
       x1="206.01799"
       y1="310.24005"
       x2="209.97813"
       y2="369.67285" /><linearGradient
       inkscape:collect="always"
       xlink:href="#linearGradient27"
       id="linearGradient484"
       gradientUnits="userSpaceOnUse"
       gradientTransform="matrix(0.98234541,0,0,1.5875384,94.299278,-40.527876)"
       x1="263.09167"
       y1="560.31622"
       x2="263.85873"
       y2="314.86627" /></defs><g
     id="layer7"
     inkscape:label="picture"
     inkscape:groupmode="layer"
     transform="matrix(0.68960734,0,0,0.68960734,2.9544174,-25.694468)"><g
       id="layer6"
       inkscape:label="sky"
       style="display:inline"
       inkscape:groupmode="layer"><path
         id="rect28"
         style="display:inline;fill:url(#linearGradient30);stroke:none;stroke-width:1.22185;stroke-dasharray:none;stroke-opacity:0.537849"
         d="m 93.903818,70.291068 c -35.09558,0 -63.348587,28.256578 -63.348587,63.352152 V 487.47485 H 702.76856 V 133.64322 c 0,-35.095574 -28.25302,-63.352152 -63.34859,-63.352152 z" /></g><g
       inkscape:groupmode="layer"
       id="layer4"
       inkscape:label="darkbluehills"
       style="display:inline"><path
         id="rect23"
         style="display:inline;fill:#003765;fill-opacity:0.996016;stroke:none;stroke-width:7.42445;stroke-dasharray:none;stroke-opacity:1"
         d="m 29.426466,291.48319 0.53593,197.87329 673.127874,3.71069 0.53051,-132.83072 L 465.01317,470.5377 176.69542,324.87496 123.68531,349.70474 Z"
         sodipodi:nodetypes="cccccccc" /></g><g
       inkscape:groupmode="layer"
       id="layer3"
       inkscape:label="bluehills"
       style="display:inline"><path
         id="rect20"
         style="display:inline;fill:url(#radialGradient34);stroke:none;stroke-width:9.88187;stroke-dasharray:none;stroke-opacity:1"
         d="m 601.38875,352.8423 -43.90718,22.45475 -33.27425,-20.61283 -82.00613,60.72957 -44.53095,-29.03599 -161.32535,98.19677 11.6352,7.58619 c 163.77863,22.93033 314.14474,-16.72804 457.61087,-90.09354 z"
         sodipodi:nodetypes="ccccccccc" /></g><g
       inkscape:groupmode="layer"
       id="layer2"
       inkscape:label="clouds"
       style="display:inline"><path
         id="path2"
         style="display:inline;fill:url(#linearGradient32);fill-opacity:1;stroke:none;stroke-width:7.49859;stroke-dasharray:none;stroke-opacity:1"
         d="m 513.30633,210.78544 c -53.27015,3.1e-4 -96.45681,36.91161 -96.45635,82.44634 0.0128,0.16873 0.028,0.3382 0.0428,0.507 -6.02582,-1.70015 -12.27992,-2.56498 -18.56937,-2.56708 -35.57738,0.0216 -64.50557,27.06422 -64.85884,60.63155 -4.16703,-0.63437 -8.38397,-0.95788 -12.60687,-0.96398 -43.36066,0 -78.5082,32.57554 -78.50824,72.75643 0.15575,16.89162 6.64756,33.20708 18.36583,46.14667 l 136.95475,-83.36393 44.53289,29.03402 82.00362,-60.72795 33.27558,20.61159 43.90807,-22.45388 102.09695,50.62846 c -1.15326,-25.1957 0.0322,-75.74515 0.0322,-87.97068 -3.1791,-20.73428 -32.63813,-32.70429 -64.95108,-32.70432 -9.96608,0.0285 -19.82126,2.10379 -28.9519,6.09815 -2.69777,-43.78614 -45.01445,-78.10455 -96.30999,-78.10839 z"
         sodipodi:nodetypes="sccccccccccccccccss" /></g><g
       inkscape:groupmode="layer"
       id="layer5"
       inkscape:label="water"
       style="display:inline"><path
         id="rect26"
         style="display:inline;fill:url(#linearGradient484);stroke:none;stroke-width:1.2488;stroke-dasharray:none;stroke-opacity:0.537849"
         d="m 30.555231,487.94971 v 187.24303 c 0,35.09557 28.253007,63.34857 63.348587,63.34857 H 639.41997 c 35.09557,0 63.34859,-28.253 63.34859,-63.34857 V 487.94971 Z" /><path
         style="display:inline;fill:url(#linearGradient262);fill-opacity:1;stroke:none;stroke-width:1.82802;stroke-dasharray:none;stroke-opacity:0.537849"
         d="m 135.65026,580.89765 c 46.92661,-29.33031 99.59899,-62.7311 155.66014,-71.38553 -20.63621,68.49776 188.52673,58.15947 270.67017,62.46235"
         id="path261"
         sodipodi:nodetypes="csc" /><path
         style="display:inline;fill:url(#linearGradient472);fill-opacity:1;stroke:none;stroke-width:1.33875;stroke-dasharray:none;stroke-opacity:0.537849"
         d="m 259.54159,730.34239 c 34.36687,-21.48015 72.94169,-45.94135 113.99827,-52.27945 -15.11301,50.16458 138.06821,42.59331 198.22625,45.74453"
         id="use411"
         sodipodi:nodetypes="csc" /><path
         id="use413"
         style="display:inline;fill:url(#linearGradient474);fill-opacity:1;stroke:none;stroke-width:1.92724;stroke-dasharray:none;stroke-opacity:0.537849"
         d="m 665.6457,593.72249 c -59.10392,9.12417 -114.63361,44.34059 -164.10721,75.26282 l 201.01299,-5.74011 -0.70108,-22.65969 c -31.48774,-9.28714 -43.31199,-23.27175 -36.2047,-46.86302 z"
         sodipodi:nodetypes="ccccc" /><path
         style="display:inline;fill:url(#linearGradient476);fill-opacity:1;stroke:none;stroke-width:1.85666;stroke-dasharray:none;stroke-opacity:0.537849"
         d="m 372.73816,603.8116 c 47.66206,-29.78998 101.15993,-63.71425 158.09968,-72.50431 -20.95962,69.57128 92.3348,68.98562 175.76562,73.35593"
         id="use415"
         sodipodi:nodetypes="csc" /><path
         style="display:inline;fill:url(#linearGradient479);fill-opacity:1;stroke:none;stroke-width:1.7264;stroke-dasharray:none;stroke-opacity:0.537849"
         d="m 86.758838,672.14602 c 44.317962,-27.69982 94.062282,-59.24387 147.006972,-67.4172 -19.48903,64.68997 178.04653,54.92639 255.6236,58.99005"
         id="use418"
         sodipodi:nodetypes="csc" /></g></g><g
     inkscape:groupmode="layer"
     id="layer8"
     inkscape:label="fields"
     transform="matrix(0.9600797,0,0,0.9600797,53.031567,308.09595)"><rect
       style="opacity:1;fill:#ffffff;fill-opacity:1;fill-rule:evenodd;stroke:none;stroke-width:1.66653;stroke-linecap:round;stroke-dasharray:none;stroke-opacity:1"
       id="rect494"
       width="310.70868"
       height="241.78783"
       x="6.7915492"
       y="-92.870857"
       rx="21.066061" /><g
       style="fill:#0017ff;fill-opacity:1;stroke:none;stroke-opacity:1"
       id="g494"
       transform="matrix(3.8348933,0,0,3.8348933,-33.308546,-126.82998)"><path
         d="M 65.336,59.287 44.057,16.712 h -5.494 l -0.264,0.591 -18.919,42.59 2.365,4.738 0.274,0.549 h 5.505 l 4.739,-10.64 h 19.922 l 5.024,10.038 0.31,0.62 h 5.432 l 2.373,-4.747 0.296,-0.6 z M 36.987,43.901 41.641,33.452 46.865,43.902 H 36.987 Z M 32.079247,51.73757 26.751,63.998 27.745353,63.114129 32.589753,52.93217 52.185,53.36 Z"
         fill="currentColor"
         id="path1"
         style="fill:#0017ff;fill-opacity:1;stroke:none;stroke-opacity:1"
         sodipodi:nodetypes="ccccccccccccccccccccccccccc" /></g><text
       xml:space="preserve"
       style="font-style:normal;font-variant:normal;font-weight:normal;font-stretch:normal;font-size:99.9917px;font-family:'Arial Black';-inkscape-font-specification:'Arial Black, ';opacity:1;fill:#ffffff;fill-opacity:1;fill-rule:evenodd;stroke:none;stroke-width:1.66653;stroke-linecap:round;stroke-dasharray:none;stroke-opacity:1"
       x="211.29434"
       y="-9.2619829"
       id="text494"><tspan
         sodipodi:role="line"
         id="tspan494"
         style="stroke-width:1.66653"
         x="211.29434"
         y="-9.2619829" /></text><text
       xml:space="preserve"
       style="font-style:normal;font-variant:normal;font-weight:normal;font-stretch:normal;font-size:230.744px;font-family:'Arial Black';-inkscape-font-specification:'Arial Black, ';opacity:1;fill:#24bd11;fill-opacity:1;fill-rule:evenodd;stroke:none;stroke-width:3.84572;stroke-linecap:round;stroke-dasharray:none;stroke-opacity:1"
       x="213.31194"
       y="90.229065"
       id="text495"><tspan
         sodipodi:role="line"
         id="tspan495"
         style="fill:#24bd11;fill-opacity:1;stroke-width:3.84572"
         x="213.31194"
         y="90.229065">|</tspan></text></g></svg>
